# xmcd
#
# Track frame offsets: 
#        150
#        20950
#        39338
#        54598
#        76460
#        83658
#        93185
#        107020
#        114113
#        123898
#        142423
#        156073
#
# Disc length: 2257 seconds
#
# Revision: 0
# Processed by: cddbd v1.5.2PL0 Copyright (c) Steve Scherf et al.
# Submitted via: ExactAudioCopy v1.0b3
#
DISCID=9208cf0c
DTITLE=Tore Berger - Nagonstans En Grans {MNWP-CD 183}
DYEAR=1989
DGENRE=Swedish Progg 
TTITLE0=Någonstans En Gräns
TTITLE1=Konstrond
TTITLE2=Var Tyst!
TTITLE3=Dröm En Dröm
TTITLE4=Morgonstund
TTITLE5=Vera Varga
TTITLE6=Dina Ogon Aro Eldar
TTITLE7=Domaredansen
TTITLE8=Maj I Munga
TTITLE9=En Håttespeleman
TTITLE10=Paradisets Timma
TTITLE11=Till Förruttnelsen
EXTD=
EXTT0=
EXTT1=
EXTT2=
EXTT3=
EXTT4=
EXTT5=
EXTT6=
EXTT7=
EXTT8=
EXTT9=
EXTT10=
EXTT11=
PLAYORDER=
